<svg xmlns="http://www.w3.org/2000/svg" width="1400" height="900" viewBox="0 0 1400 900">
  <defs>
    <linearGradient id="g" x1="0" y1="0" x2="1" y2="1">
      <stop offset="0" stop-color="#0E1416"/>
      <stop offset="0.55" stop-color="#050506"/>
      <stop offset="1" stop-color="#181a1e"/>
    </linearGradient>
    <radialGradient id="r" cx="68%" cy="28%" r="55%">
      <stop offset="0" stop-color="#A22C2C" stop-opacity=".68"/>
      <stop offset=".42" stop-color="#C85A5A" stop-opacity=".14"/>
      <stop offset="1" stop-color="#000000" stop-opacity="0"/>
    </radialGradient>
    <filter id="blur">
      <feGaussianBlur stdDeviation="18"/>
    </filter>
    <pattern id="grid" width="42" height="42" patternUnits="userSpaceOnUse">
      <path d="M42 0H0V42" fill="none" stroke="#ffffff" stroke-opacity=".055" stroke-width="1"/>
    </pattern>
  </defs>
  <rect width="1400" height="900" fill="url(#g)"/>
  <rect width="1400" height="900" fill="url(#grid)"/>
  <rect width="1400" height="900" fill="url(#r)"/>
  <circle cx="982" cy="332" r="268" fill="#A22C2C" opacity=".16" filter="url(#blur)"/>
  <path d="M198 316 C 426 218, 550 442, 904 322 S 1072 550, 1280 432" fill="none" stroke="#C85A5A" stroke-opacity=".64" stroke-width="2.4"/>
  <path d="M170 494 L408 244 L604 438 L1016 222 L1222 408" fill="none" stroke="#A22C2C" stroke-opacity=".44" stroke-width="1.3"/>
  <g opacity=".9">
    <rect x="72" y="72" width="1256" height="756" rx="32" fill="none" stroke="#ffffff" stroke-opacity=".13"/>
    <rect x="108" y="108" width="342" height="10" rx="5" fill="#A22C2C" opacity=".86"/>
    <rect x="108" y="138" width="212" height="5" rx="2.5" fill="#ffffff" opacity=".35"/>
  </g>
  <g transform="translate(108 616)">
    <text x="0" y="0" font-family="Inter, Arial, sans-serif" font-size="22" letter-spacing="0" fill="#ffffff" opacity=".54">INTERFACE</text>
    <text x="0" y="78" font-family="Inter, Arial, sans-serif" font-size="88" font-weight="700" fill="#f4f7f8">UI设计</text>
    <text x="0" y="128" font-family="Arial, 'Microsoft YaHei', sans-serif" font-size="24" fill="#ffffff" opacity=".64">Selected direction / Portfolio placeholder</text>
  </g>
  <g transform="translate(1010 184)" opacity=".86">
    <rect x="0" y="0" width="220" height="220" rx="22" fill="#ffffff" opacity=".06"/>
    <path d="M48 44h124v124H48z" fill="none" stroke="#A22C2C" stroke-width="5"/>
    <path d="M72 154L168 58M72 58l96 96" stroke="#C85A5A" stroke-width="4" stroke-linecap="round"/>
  </g>
</svg>
